<svg width="364" height="90" viewBox="0 0 364 90" fill="none" xmlns="http://www.w3.org/2000/svg">
<path d="M85.6239 54.0025L85.4459 68.3165L75.8027 68.2621L76.2553 31.6777L96.7456 31.7893L96.6853 36.6894L85.8381 36.629L85.6812 49.2261L96.5283 49.2865L96.7456 31.7893L106.53 31.8436L106.253 54.1111L85.6239 54.0025Z" fill="black"/>
<path d="M137.297 58.6721L119.362 58.5726L119.296 63.9162L138.338 64.0217L136.307 68.4662L109.936 68.3214L110.256 42.6172L128.191 42.7168L128.133 47.4086L119.504 47.3785L119.422 53.8686L128.052 53.9169L128.191 42.7198L137.496 42.7711L137.297 58.6721Z" fill="black"/>
<path d="M142.141 68.5655L142.461 42.8613L169.795 43.0122L168.051 47.5833L151.661 47.4928L151.456 64.0335L169.439 64.1331L167.453 68.7043L142.141 68.5655Z" fill="black"/>
<path d="M192.749 54.0166L203.026 68.8978L192.613 68.8405L182.804 55.0425L182.635 68.7862L173.33 68.7349L173.782 32.1504L183.088 32.2017L182.843 51.9256L192.016 43.1303L203.539 43.1936L192.749 54.0166Z" fill="black"/>
<path d="M239.907 69.1648L207.076 68.9837L207.137 64.2134L230.131 64.3402L230.333 48.1162L240.167 48.1706L239.907 69.1648ZM217.356 37.1002L217.22 48.0438L230.333 48.1162L230.276 52.8051L207.378 52.6995L207.628 32.4023L241.518 32.5893L239.63 37.2239L217.356 37.1002Z" fill="black"/>
<path d="M254.488 48.0587L254.225 69.1827L244.92 69.1314L245.373 32.5469L254.678 32.5982L254.542 43.4785L263.268 43.5268L263.211 48.0919L254.488 48.0587ZM272.302 69.2792L262.951 69.2279L263.271 43.5238L272.622 43.575L272.302 69.2792Z" fill="black"/>
<path d="M285.461 69.3506L276.156 69.2993L276.476 43.5951L285.781 43.6464L285.461 69.3506ZM276.611 32.7148L285.917 32.7661L285.82 40.6563L276.515 40.605L276.611 32.7148Z" fill="black"/>
<path d="M316.679 59.7229L298.744 59.6233L298.678 64.9669L317.72 65.0725L315.689 69.517L289.318 69.3722L289.638 43.668L307.573 43.7675L307.515 48.4594L298.886 48.4292L298.804 54.9194L307.434 54.9677L307.573 43.7706L316.878 43.8219L316.679 59.7229Z" fill="black"/>
<path d="M331.115 69.6006L321.523 69.5493L321.976 32.9648L331.568 33.0161L331.115 69.6006Z" fill="black"/>
<path d="M363.001 33.1891L362.548 69.7736L334.973 69.6227L335.293 43.9185L353.563 44.0181L353.506 48.5833L344.538 48.5501L344.333 65.0908L353.3 65.1391L353.563 44.0151L353.699 33.1348L363.001 33.1891Z" fill="black"/>
<path d="M47.9176 52.5932C47.9176 52.5932 50.3013 55.354 51.8522 60.5437C52.4888 62.6739 40.1149 68.1322 40.1149 68.1322C40.1149 68.1322 45.7874 63.2352 40.5856 60.7278C35.3838 58.2204 29.7838 60.3868 26.0695 46.0729C25.5505 44.0664 23.0915 43.2729 21.9268 43.2729C19.1841 43.2729 9.94514 47.0746 9.94514 47.0746C9.94514 47.0746 9.3628 48.0341 8.81668 48.5621C8.81668 48.5621 8.30978 49.0509 8.26753 49.0902C7.71839 49.6182 6.6201 50.1824 6.07397 50.1492C5.57914 50.1191 5.52483 50.1492 4.97568 49.6212C4.6287 49.2893 4.42654 48.5621 4.42654 48.0341C4.42654 46.8513 5.92612 46.2539 6.6201 45.919C7.71839 45.391 8.87099 45.391 9.36281 45.919C9.40203 45.9612 9.91195 46.447 9.85462 46.447C9.85462 46.447 9.85462 46.9751 11.5021 45.919C13.9612 44.338 19.4225 42.0297 20.4031 41.4263C20.6686 41.2633 20.8738 41.025 20.9854 40.7383C21.272 40.0082 21.9539 38.4905 23.0281 37.4555C24.1264 36.3965 27.4182 34.2814 31.7933 36.5473C39.3787 40.4728 40.1149 40.0564 40.1149 40.0564C40.1149 40.0564 41.6839 37.4555 46.0741 32.6973C50.2319 28.1895 54.8543 25.2929 54.8543 25.2929L56.5018 30.0511C56.5018 30.0511 58.0134 28.9106 63.3631 25.4679C63.2062 22.9364 60.4755 20.9178 57.1173 20.9178C57.1173 20.9178 38.0149 12.6777 31.6575 12.6777C25.3001 12.6777 6.26406 20.9178 6.26406 20.9178C2.80928 20.9178 0.0092421 23.0541 0.0092421 25.6882C0.0092421 25.6882 -0.304555 54.1924 2.7248 60.7851C7.03347 70.1508 31.6545 89.754 31.6545 89.754C31.6545 89.754 55.7022 70.3258 60.6928 60.9601C62.0898 58.3411 62.7988 52.2281 63.1458 45.8164C59.676 49.0358 54.788 51.5734 47.9176 52.5932Z" fill="url(#paint0_linear_4731_746)"/>
<defs>
<linearGradient id="paint0_linear_4731_746" x1="-0.001077" y1="51.2204" x2="63.3591" y2="51.2204" gradientUnits="userSpaceOnUse">
<stop stop-color="#29ABE2"/>
<stop offset="0.5" stop-color="#29ABE2"/>
<stop offset="0.5226" stop-color="#239BD3"/>
<stop offset="0.5642" stop-color="#1A84BD"/>
<stop offset="0.6086" stop-color="#1373AD"/>
<stop offset="0.6577" stop-color="#0F69A4"/>
<stop offset="0.7202" stop-color="#0E66A1"/>
<stop offset="0.9944" stop-color="#0661A1"/>
</linearGradient>
</defs>
</svg>
