<svg width="434" height="76" viewBox="0 0 434 76" fill="none" xmlns="http://www.w3.org/2000/svg">
<g clip-path="url(#clip0_1425_127)">
<path d="M12.6821 11.613L32.8546 0L53.0272 11.613L45.6107 15.9032L32.8546 8.58034L20.0984 15.9032L12.6821 11.613ZM53.0272 26.2588L45.6107 21.9686L32.8546 29.2915L20.0984 21.9686L12.6821 26.2588V34.8391L25.4382 42.1619V56.8076L32.8546 61.098L40.2711 56.8076V42.1619L53.0272 34.8391V26.2588ZM53.0272 49.4849V40.9046L45.6107 45.1946V53.7749L53.0272 49.4849ZM58.2927 52.5176L45.5366 59.8403V68.4207L65.7092 56.8076V33.5815L58.2927 37.8719V52.5176ZM50.8765 18.9359L58.2927 23.2261V31.8064L65.7092 27.5162V18.9359L58.2927 14.6458L50.8765 18.9359ZM25.4382 62.9473V71.5276L32.8546 75.8176L40.2711 71.5276V62.9473L32.8546 67.2373L25.4382 62.9473ZM12.6821 49.4849L20.0984 53.7749V45.1946L12.6821 40.9046V49.4849ZM25.4382 18.9359L32.8546 23.2261L40.2711 18.9359L32.8546 14.6458L25.4382 18.9359ZM7.41636 23.2261L14.8328 18.9359L7.41636 14.6458L0 18.9359V27.5162L7.41636 31.8064V23.2261ZM7.41636 37.8719L0 33.5815V56.8076L20.1725 68.4207V59.8403L7.41636 52.5176V37.8719Z" fill="#F0B90B"/>
<path d="M124.176 47.5802V47.4596C124.176 41.7935 121.154 38.9604 116.259 37.0918C119.28 35.4042 121.819 32.7519 121.819 27.9899V27.8693C121.819 21.2387 116.5 16.959 107.858 16.959H88.2158V59.1538H108.342C117.891 59.1538 124.176 55.296 124.176 47.5802ZM112.572 29.5571C112.572 32.6916 109.973 34.0177 105.864 34.0177H97.2816V25.0965H106.468C110.396 25.0965 112.572 26.6638 112.572 29.4365V29.5571ZM114.929 46.4351C114.929 49.5695 112.451 51.016 108.342 51.016H97.2816V41.7334H108.039C112.814 41.7334 114.929 43.4814 114.929 46.3144V46.4351Z" fill="#F0B90B"/>
<path d="M170.031 59.1538V16.959H160.844V42.9389L141.021 16.959H132.438V59.1538H141.625V32.3298L162.113 59.1538H170.031Z" fill="#F0B90B"/>
<path d="M216.75 47.5802V47.4596C216.75 41.7935 213.728 38.9604 208.833 37.0918C211.855 35.4042 214.393 32.7519 214.393 27.9899V27.8693C214.393 21.2387 209.075 16.959 200.432 16.959H180.79V59.1538H200.916C210.465 59.1538 216.75 55.296 216.75 47.5802ZM205.146 29.5571C205.146 32.6916 202.548 34.0177 198.438 34.0177H189.856V25.0965H199.042C202.97 25.0965 205.146 26.6638 205.146 29.4365V29.5571ZM207.503 46.4351C207.503 49.5695 205.025 51.016 200.916 51.016H189.856V41.7334H200.614C205.388 41.7334 207.503 43.4814 207.503 46.3144V46.4351Z" fill="#F0B90B"/>
<path d="M272.844 51.7004L268.07 46.8784C264.443 50.2539 261.119 52.3635 255.922 52.3635C247.823 52.3635 241.961 45.6126 241.961 37.2941C241.961 28.9757 247.823 22.3451 255.922 22.3451C260.757 22.3451 264.383 24.4549 267.767 27.5893L272.542 22.104C268.492 18.2462 263.778 15.5337 255.982 15.5337C243.169 15.5337 234.164 25.359 234.164 37.4148C234.164 49.5908 243.351 59.1751 255.68 59.1751C263.597 59.1751 268.432 56.2817 272.844 51.7004Z" fill="#F0B90B"/>
<path d="M308.882 40.6694V58.4515H316.315V16.2568H308.882V33.7978H288.696V16.2568H281.262V58.4515H288.696V40.6694H308.882Z" fill="#F0B90B"/>
<path d="M349.659 15.9565H342.77L324.155 58.4526H331.77L336.122 48.2655H356.127L360.419 58.4526H368.274L349.659 15.9565ZM353.406 41.6953H338.843L346.093 24.8174L353.406 41.6953Z" fill="#F0B90B"/>
<path d="M376.561 16.2568V58.4515H383.994V16.2568H376.561Z" fill="#F0B90B"/>
<path d="M425.477 45.4314L402.811 16.2568H395.922V58.4515H403.235V28.433L426.563 58.4515H432.791V16.2568H425.477V45.4314Z" fill="#F0B90B"/>
</g>
<defs>
<clipPath id="clip0_1425_127">
<path d="M0 23.5323C0 10.5358 10.5358 0 23.5323 0H410.403C423.399 0 433.935 10.5358 433.935 23.5323V75.8176H0V23.5323Z" fill="white"/>
</clipPath>
</defs>
</svg>
