<svg width="1756" height="547" viewBox="0 0 1756 547" fill="none" xmlns="http://www.w3.org/2000/svg">
<path d="M521.565 545.595C519.637 545.904 518.055 544.849 516.4 544.212C488.975 533.701 461.531 523.243 434.179 512.532C429.887 510.858 426.395 510.931 422.23 513.041C403.462 522.516 383.475 528.154 362.688 531.173C351.43 532.809 340.118 533.719 328.752 533.464C294.306 532.682 261.68 524.607 231.217 508.294C215.395 499.819 200.882 489.471 187.606 477.359C172.511 463.573 159.763 447.86 149.069 430.492C146.978 427.11 144.722 425.636 140.54 425.291C108.968 422.672 77.6324 418.616 47.5156 408.141C35.7307 404.049 24.4733 398.884 14.6344 391.009C9.85136 387.172 5.79577 382.698 3.0678 377.169C-1.18784 368.567 -0.842297 359.91 3.03143 351.29C7.15976 342.124 13.6887 334.813 21.1088 328.211C35.9672 315.026 53.0807 305.333 70.7579 296.53C87.7078 288.11 105.185 280.926 123.008 274.579C125.899 273.561 127.373 272.07 128.155 269.105C137.084 235.242 153.361 205.307 176.694 179.228C206.429 146.001 242.839 123.795 286.268 113.302C306.164 108.482 326.369 107.064 346.702 108.446C374.363 110.337 400.661 117.648 425.413 130.16C464.95 150.129 495.831 179.337 517.964 217.728C519.583 220.547 521.328 221.639 524.747 221.566C532.168 221.438 539.533 222.712 546.88 223.748C563.812 226.149 580.671 228.913 597.184 233.532C605.659 235.897 613.934 238.788 622.1 241.989C627.337 244.044 631.629 247.7 636.594 250.119C640.868 252.192 644.651 254.793 648.052 258.048C661.728 271.16 663.329 286.928 652.599 302.641C645.233 313.408 635.43 321.682 624.882 329.103C606.823 341.815 587.145 351.508 566.886 360.092C558.811 363.511 550.627 366.712 542.388 369.768C540.079 370.622 539.06 371.932 538.46 374.169C532.204 397.92 522.292 420.017 508.27 440.186C506.652 442.495 506.252 444.714 506.688 447.387C511.235 475.94 515.709 504.493 520.219 533.028C520.674 535.865 521.183 538.702 521.619 541.539C521.819 542.867 522.292 544.212 521.528 545.558L521.565 545.595ZM534.896 252.446C534.423 254.192 535.132 255.247 535.459 256.393C536.787 261.049 537.987 265.741 539.46 270.36C540.188 272.633 539.697 273.888 537.66 275.161C520.892 285.673 502.76 292.529 483.319 296.149C481.136 296.549 480.191 295.858 479.954 293.748C479.881 293.002 479.59 292.275 479.427 291.547C470.461 253.429 450.201 222.748 418.593 199.687C402.516 187.975 384.748 179.955 365.27 175.318C344.847 170.444 324.532 170.025 304.109 174.335C280.175 179.391 258.77 189.685 240.074 205.58C219.051 223.457 203.501 245.117 193.881 271.051C185.951 292.42 183.296 314.481 184.533 337.123C184.642 339.251 186.624 341.979 184.387 343.433C182.696 344.543 179.986 344.125 177.749 344.379C177.458 344.416 177.149 344.379 176.84 344.397C163.636 344.925 150.506 344.015 137.393 342.524C132.738 341.997 128.136 341.051 123.517 340.287C122.08 340.051 120.934 339.632 120.934 337.796C120.934 332.049 119.934 326.338 120.625 320.555C121.062 316.863 121.316 313.098 120.734 309.497C119.716 309.043 119.025 309.334 118.316 309.643C111.277 312.716 104.148 315.608 97.4557 319.409C92.8364 322.028 88.417 324.956 84.3251 328.357C81.7426 330.503 79.5238 332.994 77.9416 335.977C75.4137 340.742 75.9593 344.525 79.6148 348.453C81.8153 350.817 84.5251 352.472 87.3986 353.873C92.3271 356.273 97.5285 357.892 102.821 359.201C117.57 362.838 132.628 364.384 147.741 365.33C166.637 366.512 185.587 366.912 204.52 366.203C224.343 365.476 244.166 364.712 263.917 362.875C275.211 361.82 286.541 361.02 297.835 359.765C311.82 358.219 325.787 356.473 339.718 354.527C354.395 352.472 369.107 350.435 383.693 347.762C401.188 344.561 418.702 341.415 436.07 337.559C469.933 330.048 503.451 321.41 535.914 309.061C548.099 304.423 559.957 299.095 570.923 291.948C575.27 289.11 579.271 285.873 582.435 281.745C586.873 275.943 586.236 270.487 580.725 265.759C577.707 263.158 574.142 261.467 570.45 260.048C559.065 255.702 547.153 253.865 534.877 252.428L534.896 252.446Z" fill="white"/>
<path d="M191.897 14.4957C191.825 21.3884 187.314 26.9171 180.385 28.2993C174.747 29.4086 169 29.7178 163.344 30.8272C125.28 38.3382 93.5629 56.6702 68.3746 86.2233C57.4809 98.9902 48.8605 113.139 42.2406 128.561C39.5672 134.781 34.0385 138.164 27.9096 137.6C17.998 136.673 12.1419 127.507 15.7429 118.177C18.0344 112.248 20.8351 106.519 23.8904 100.954C34.2385 82.0949 47.1146 65.1633 62.955 50.5595C82.2327 32.7913 104.202 19.5334 128.936 10.6766C143.267 5.54796 157.961 2.36533 172.983 0.292066C178.639 -0.489953 183.859 0.0920147 188.005 4.60227C190.588 7.40299 191.934 10.6584 191.879 14.4775L191.897 14.4957Z" fill="white"/>
<path d="M78.3593 157.458C68.2112 157.44 61.8278 148.092 65.3014 138.017C68.3749 129.106 72.6305 120.722 77.7591 112.847C99.8557 78.8926 130.936 58.5419 170.856 51.722C173.838 51.2127 176.839 50.849 179.822 50.4489C187.824 49.3941 195.408 54.941 196.371 62.5247C197.426 70.9996 191.861 78.1651 183.259 78.9835C173.711 79.8928 164.418 81.8206 155.415 85.0578C145.086 88.7679 135.647 94.0601 126.826 100.625C110.477 112.81 99.5829 128.942 92.0719 147.601C89.3985 154.221 84.9974 157.476 78.3775 157.458H78.3593Z" fill="white"/>
<path d="M193.755 109.231C193.573 115.069 190.845 119.288 185.571 121.78C183.243 122.871 180.77 123.653 178.387 124.58C169.839 127.927 162.019 132.764 155.436 138.966C148.07 145.913 142.087 154.206 137.849 163.572C137.468 164.391 137.14 165.245 136.722 166.046C133.048 173.029 125.119 175.848 118.117 172.684C111.024 169.465 107.842 161.263 111.024 153.897C115.68 143.094 121.991 133.31 129.902 124.617C142.069 111.232 156.836 101.702 173.877 95.7367C182.425 92.7359 190.408 96.3732 193.118 104.284C193.682 105.921 193.737 107.54 193.773 109.231H193.755Z" fill="white"/>
<path d="M347.902 269.903C363.16 270.012 374.981 282.397 375.018 297.31C375.054 311.787 361.869 324.626 347.774 324.463C331.97 324.263 320.204 311.896 320.331 297.019C320.476 279.851 334.589 269.285 347.92 269.921L347.902 269.903Z" fill="white"/>
<path d="M264.006 295.308C264.807 309.057 251.567 323.133 236.836 322.824C222.996 322.533 209.72 312.294 209.629 295.672C209.538 279.377 222.214 268.538 236.527 268.265C251.112 267.992 264.37 280.141 264.006 295.308Z" fill="white"/>
<path d="M751.466 542.539H691.831V330.24H810.741V376.431L751.466 372.808V422.079H800.111V467.003L751.466 463.38V542.539Z" fill="white"/>
<path d="M885.548 542.539H827.354V425.34L816.544 418.638V398.168L855.28 388.568H869.873L875.098 431.68C880.023 402.093 895.817 387.3 922.482 387.3C925.485 387.3 928.607 387.843 931.85 388.93L925.725 453.417C923.202 451.122 917.677 449.975 909.149 449.975C896.898 449.975 889.031 453.236 885.548 459.757V542.539Z" fill="white"/>
<path d="M946.116 542.539V425.34L935.306 418.638V399.255L974.042 388.568H1004.13V542.539H946.116ZM972.24 371.903L942.693 342.014V335.674L972.24 305.967H979.086L1009.89 335.674V342.014L979.086 371.903H972.24Z" fill="white"/>
<path d="M1109.88 448.888C1109.88 433.552 1109.1 422.683 1107.54 416.283C1105.98 409.882 1103.09 406.682 1098.89 406.682C1095.29 406.682 1092.34 407.346 1090.06 408.675C1087.78 409.882 1086.1 411.875 1085.02 414.652C1083.94 417.309 1083.22 420.087 1082.86 422.985C1082.61 425.762 1082.49 429.325 1082.49 433.672V448.888H1109.88ZM1095.47 546.343C1082.01 546.343 1070.3 544.29 1060.33 540.184C1050.49 536.078 1042.68 530.342 1036.91 522.976C1031.27 515.609 1027.12 507.337 1024.48 498.159C1021.84 488.86 1020.52 478.535 1020.52 467.184C1020.52 440.133 1027.36 419.664 1041.06 405.776C1054.75 391.889 1073.91 384.945 1098.53 384.945C1122.19 384.945 1139.13 390.56 1149.34 401.791C1159.55 412.901 1164.65 430.834 1164.65 455.591V475.697H1082.31V479.139C1082.31 486.264 1083.04 492.121 1084.48 496.71C1086.04 501.299 1088.26 504.68 1091.14 506.854C1094.03 509.028 1096.97 510.477 1099.97 511.201C1102.97 511.926 1106.64 512.288 1110.96 512.288C1115.16 512.288 1119.67 511.745 1124.47 510.658C1129.4 509.571 1134.32 507.88 1139.25 505.586C1144.29 503.292 1148.5 500.574 1151.86 497.435L1162.49 515.73C1158.04 522.976 1151.5 529.074 1142.85 534.025C1134.32 538.856 1126.09 542.116 1118.17 543.807C1110.24 545.498 1102.67 546.343 1095.47 546.343Z" fill="white"/>
<path d="M1242.36 542.539H1184.17V425.34L1173.36 418.638V399.255L1212.09 388.568H1242.72V411.935L1244.88 409.218C1246.32 407.286 1248.43 404.991 1251.19 402.335C1254.07 399.678 1257.25 397.082 1260.74 394.546C1264.22 391.889 1268.37 389.655 1273.17 387.843C1278.09 385.911 1282.9 384.945 1287.58 384.945C1304.04 384.945 1315.63 389.474 1322.35 398.531C1329.2 407.588 1332.62 422.743 1332.62 443.997C1332.62 444.722 1332.62 445.809 1332.62 447.258C1332.5 448.707 1332.44 449.854 1332.44 450.7V542.539H1272.99V445.447C1273.35 434.095 1268.55 428.419 1258.58 428.419C1257.86 428.419 1257.13 428.48 1256.41 428.6C1255.81 428.721 1255.21 428.842 1254.61 428.963C1254.13 429.083 1253.53 429.325 1252.81 429.687C1252.21 429.929 1251.67 430.17 1251.19 430.412C1250.71 430.533 1250.17 430.834 1249.57 431.317C1248.97 431.68 1248.49 431.982 1248.13 432.223C1247.77 432.465 1247.23 432.887 1246.5 433.491C1245.9 433.974 1245.42 434.337 1245.06 434.578C1244.82 434.82 1244.34 435.242 1243.62 435.846C1243.02 436.329 1242.6 436.691 1242.36 436.933V542.539Z" fill="white"/>
<path d="M1455.9 542.539L1448.87 519.172C1447.91 520.862 1446.77 522.553 1445.45 524.244C1444.25 525.934 1442.26 528.108 1439.5 530.765C1436.74 533.301 1433.8 535.535 1430.67 537.467C1427.55 539.399 1423.65 541.09 1418.96 542.539C1414.28 543.988 1409.35 544.713 1404.19 544.713C1384.37 544.713 1369.84 537.89 1360.59 524.244C1351.34 510.598 1346.72 491.638 1346.72 467.365C1346.72 452.149 1348.88 438.624 1353.2 426.789C1357.53 414.834 1364.31 405.233 1373.56 397.987C1382.81 390.742 1393.98 387.119 1407.07 387.119C1414.88 387.119 1421.85 387.964 1427.97 389.655C1434.1 391.345 1439.38 393.398 1443.83 395.814V340.927L1424.01 334.225V314.299L1487.79 305.242H1501.84V542.539H1455.9ZM1430.49 509.209C1432.66 509.209 1434.88 508.847 1437.16 508.122C1439.44 507.277 1441.66 506.129 1443.83 504.68V413.566C1440.1 412.72 1436.68 412.298 1433.56 412.298C1417.58 412.418 1409.53 424.796 1409.41 449.432V474.792C1409.41 486.143 1411.4 494.717 1415.36 500.514C1419.32 506.311 1424.37 509.209 1430.49 509.209Z" fill="white"/>
<path d="M1612.39 546.162C1592.69 546.162 1574.44 540.788 1557.62 530.04V500.333C1566.03 506.733 1575.52 509.933 1586.09 509.933C1593.53 509.933 1599.78 509.088 1604.83 507.397C1609.87 505.586 1613.59 503.11 1616 499.971C1618.4 496.831 1620.02 493.691 1620.86 490.551C1621.82 487.411 1622.3 483.788 1622.3 479.683C1622.3 458.791 1609.99 448.345 1585.37 448.345H1580.68V423.528H1583.03C1596.24 423.528 1606.09 421.596 1612.57 417.732C1619.06 413.747 1622.3 406.199 1622.3 395.089C1622.3 384.22 1619 376.31 1612.39 371.359C1605.79 366.287 1597.02 363.751 1586.09 363.751C1575.52 363.751 1566.03 366.951 1557.62 373.352V343.644C1574.68 332.655 1592.93 327.16 1612.39 327.16C1625.6 327.16 1637.01 328.67 1646.62 331.689C1656.35 334.708 1664.04 338.995 1669.68 344.55C1675.45 350.105 1679.65 356.445 1682.3 363.57C1685.06 370.695 1686.44 378.726 1686.44 387.662C1686.44 414.471 1672.15 429.083 1643.56 431.499C1658.94 432.706 1671.13 438.201 1680.13 447.983C1689.14 457.644 1693.65 471.531 1693.65 489.645C1693.65 505.586 1686.56 518.991 1672.39 529.859C1658.21 540.728 1638.22 546.162 1612.39 546.162Z" fill="white"/>
<circle cx="1730.02" cy="515.165" r="25.9807" fill="url(#paint0_linear_55_554)"/>
<defs>
<linearGradient id="paint0_linear_55_554" x1="1717.03" y1="504.773" x2="1740.93" y2="535.949" gradientUnits="userSpaceOnUse">
<stop stop-color="white"/>
<stop offset="1" stop-color="#979797"/>
</linearGradient>
</defs>
</svg>
