<svg width="181" height="150" viewBox="0 0 181 150" fill="none" xmlns="http://www.w3.org/2000/svg">
<g clip-path="url(#clip0_18_490)">
<path d="M147.675 101.526C132.977 106.886 114.352 111.42 93.8596 114.219C74.0216 116.928 55.4303 117.616 40.1207 116.546C16.9724 114.95 1.30927 109.38 0.13418 100.819C-1.02658 92.3489 12.2768 82.8804 33.7485 75.17C34.0972 75.041 34.4554 74.912 34.8185 74.7878C34.0306 77.9347 33.6174 81.0566 33.3625 84.2906L32.3219 84.6809C24.722 87.8529 20.6362 91.0352 21.0088 93.763C21.367 96.4001 25.9862 98.2775 33.6147 99.3142C46.5742 101.082 68.2178 100.456 92.4362 97.1501C116.363 93.8824 137.166 88.7565 149.242 83.6353C156.589 80.5205 160.706 77.4248 160.334 74.7114C159.951 71.9119 154.802 69.9771 146.357 68.9787H146.175C145.123 66.0742 143.845 63.2566 142.354 60.5516L142.784 60.585C164.704 62.3861 179.402 67.8751 180.52 76.1541C181.686 84.519 168.707 93.8633 147.675 101.526Z" fill="url(#paint0_linear_18_490)"/>
<path d="M140.801 135.354L143.046 149.585L129.6 144.416L117.347 139.711C103.961 146.493 88.4798 147.871 74.1061 143.559C59.7324 139.248 47.5653 129.577 40.1207 116.546C55.4065 117.616 74.036 116.928 93.8596 114.219C114.352 111.42 132.977 106.886 147.675 101.526C145.929 108.656 142.85 115.391 138.599 121.376L140.801 135.354Z" fill="url(#paint1_linear_18_490)"/>
<path d="M64.8886 88.3456C69.0015 88.3456 72.3356 85.0111 72.3356 80.8979C72.3356 76.7846 69.0015 73.4501 64.8886 73.4501C60.7757 73.4501 57.4416 76.7846 57.4416 80.8979C57.4416 85.0111 60.7757 88.3456 64.8886 88.3456Z" fill="url(#paint2_linear_18_490)"/>
<path d="M95.2258 88.7757C99.3387 88.7757 102.673 85.4412 102.673 81.328C102.673 77.2147 99.3387 73.8802 95.2258 73.8802C91.113 73.8802 87.7788 77.2147 87.7788 81.328C87.7788 85.4412 91.113 88.7757 95.2258 88.7757Z" fill="url(#paint3_linear_18_490)"/>
<path d="M33.9922 43.7215C35.3962 40.449 37.4821 37.5137 40.1106 35.1115C42.7391 32.7093 45.8498 30.8954 49.2349 29.7911" stroke="url(#paint4_linear_18_490)" stroke-width="8.325" stroke-miterlimit="10" stroke-linecap="round"/>
<path d="M21.5245 39.2595C23.7001 33.3233 27.534 28.1366 32.5706 24.3157C37.6071 20.4947 43.6346 18.2001 49.9369 17.7045" stroke="url(#paint5_linear_18_490)" stroke-width="8.325" stroke-miterlimit="10" stroke-linecap="round"/>
<path d="M7.97284 33.7943C11.4032 25.587 17.0035 18.4688 24.1727 13.2035C31.3419 7.93828 39.8093 4.72476 48.6664 3.90781" stroke="url(#paint6_linear_18_490)" stroke-width="8.325" stroke-miterlimit="10" stroke-linecap="round"/>
<path d="M35.0738 74.5708C34.8732 75.8176 34.6869 77.1075 34.5197 78.4308C34.2808 80.3417 34.0977 82.1809 33.9704 83.9485L27.9086 86.705L21.288 80.0837C23.6764 78.9563 26.2702 77.8432 29.0073 76.7731C31.0899 75.9609 33.1153 75.23 35.0738 74.5708Z" fill="url(#paint7_linear_18_490)" fill-opacity="0.8"/>
<path d="M144.584 68.7638C145.95 68.8737 147.45 69.0457 148.998 69.3132C150.67 69.5972 152.326 69.9655 153.961 70.4168L151.754 61.5884C150.321 61.3925 148.85 61.2062 147.341 61.039C145.264 60.8097 143.242 60.625 141.274 60.4849L144.584 68.7638Z" fill="url(#paint8_linear_18_490)" fill-opacity="0.6"/>
<path d="M147.895 74.8307C142.995 78.07 137.456 80.2174 131.654 81.1271C130.122 73.2029 126.374 65.8759 120.844 59.9974C112.427 51.0496 100.385 45.9905 88.0129 47.0033C74.208 48.1355 62.18 56.6438 55.6788 68.6394C53.147 73.2943 51.509 78.3822 50.8495 83.64C50.4218 87.1302 50.4218 90.6596 50.8495 94.1499C47.7278 94.3728 44.5943 94.3728 41.4726 94.1499C38.6945 93.9547 35.9314 93.5861 33.1992 93.0464C33.118 91.6944 33.0655 90.0654 33.0989 88.2166C33.0989 87.8678 33.1371 86.2483 33.29 84.3948C33.5297 81.1556 34.0394 77.9421 34.8138 74.7877C40.8278 50.4907 61.5638 31.8594 86.3506 29.7622C109.184 27.8274 131.214 40.2721 142.354 60.5515C143.817 63.2706 145.094 66.0861 146.175 68.9786C146.858 70.8954 147.432 72.8492 147.895 74.8307Z" fill="url(#paint9_linear_18_490)"/>
<path d="M39.7817 116.202C40.9982 118.014 42.2847 119.853 43.6413 121.72C44.7495 123.242 45.853 124.713 46.9517 126.134C62.5001 134.371 82.7423 133.742 100.223 130.729C115.464 128.099 130.401 121.72 144.585 110.689C145.148 109.523 145.712 108.238 146.237 106.824C146.909 105.025 147.463 103.183 147.895 101.311C131.936 106.824 115.512 110.885 98.8229 113.445C79.2944 116.441 59.5042 117.365 39.7817 116.202Z" fill="url(#paint10_linear_18_490)" fill-opacity="0.8"/>
</g>
<defs>
<linearGradient id="paint0_linear_18_490" x1="56.6465" y1="63.4782" x2="149.132" y2="102.892" gradientUnits="userSpaceOnUse">
<stop stop-color="#B516FF"/>
<stop offset="1" stop-color="#882BFF"/>
</linearGradient>
<linearGradient id="paint1_linear_18_490" x1="62.2399" y1="95.4775" x2="138.466" y2="147.379" gradientUnits="userSpaceOnUse">
<stop stop-color="#B822FF"/>
<stop offset="1" stop-color="#5900EB"/>
</linearGradient>
<linearGradient id="paint2_linear_18_490" x1="60.9393" y1="73.364" x2="66.4026" y2="85.4613" gradientUnits="userSpaceOnUse">
<stop stop-color="#CC00FF"/>
<stop offset="1" stop-color="#B10AEA"/>
</linearGradient>
<linearGradient id="paint3_linear_18_490" x1="89.5563" y1="75.0553" x2="99.1821" y2="86.7623" gradientUnits="userSpaceOnUse">
<stop stop-color="#CC00FF"/>
<stop offset="1" stop-color="#792FFF"/>
</linearGradient>
<linearGradient id="paint4_linear_18_490" x1="41.6136" y1="29.7911" x2="47.281" y2="41.6252" gradientUnits="userSpaceOnUse">
<stop stop-color="#C703FC"/>
<stop offset="1" stop-color="#7233FF"/>
</linearGradient>
<linearGradient id="paint5_linear_18_490" x1="30.5007" y1="21.593" x2="39.2159" y2="33.9505" gradientUnits="userSpaceOnUse">
<stop stop-color="#CF35F9"/>
<stop offset="1" stop-color="#822BFF"/>
</linearGradient>
<linearGradient id="paint6_linear_18_490" x1="17.8832" y1="8.58516" x2="32.7121" y2="28.227" gradientUnits="userSpaceOnUse">
<stop stop-color="#DD60FF"/>
<stop offset="1" stop-color="#BE20FA"/>
</linearGradient>
<linearGradient id="paint7_linear_18_490" x1="37.0047" y1="74.665" x2="28.1594" y2="82.5998" gradientUnits="userSpaceOnUse">
<stop stop-color="#A30DFF"/>
<stop offset="1" stop-color="#7C33B6" stop-opacity="0.03125"/>
</linearGradient>
<linearGradient id="paint8_linear_18_490" x1="142.368" y1="65.5596" x2="151.213" y2="67.1205" gradientUnits="userSpaceOnUse">
<stop stop-color="#461BC0"/>
<stop offset="1" stop-color="#9024F5"/>
</linearGradient>
<linearGradient id="paint9_linear_18_490" x1="138.075" y1="74.1445" x2="49.4922" y2="46.8281" gradientUnits="userSpaceOnUse">
<stop stop-color="#6A36FF"/>
<stop offset="1" stop-color="#CC00FF"/>
</linearGradient>
<linearGradient id="paint10_linear_18_490" x1="93.7189" y1="105.103" x2="96.0603" y2="122.013" gradientUnits="userSpaceOnUse">
<stop stop-color="#880EB5"/>
<stop offset="1" stop-color="#AA0BE5" stop-opacity="0"/>
</linearGradient>
<clipPath id="clip0_18_490">
<rect width="180.548" height="149.59" fill="white" transform="translate(0.0625)"/>
</clipPath>
</defs>
</svg>
