<svg width="52" height="52" viewBox="0 0 52 52" fill="none" xmlns="http://www.w3.org/2000/svg">
<path d="M26 40.3011C22.2071 40.3011 18.5696 38.7944 15.8876 36.1124C13.2056 33.4304 11.6989 29.7929 11.6989 26C11.6989 22.2071 13.2056 18.5696 15.8876 15.8876C18.5696 13.2056 22.2071 11.6989 26 11.6989V0C20.8577 0 15.8308 1.52487 11.5552 4.38178C7.27951 7.2387 3.94702 11.2993 1.97915 16.0503C0.0112669 20.8011 -0.503621 26.0289 0.499593 31.0724C1.50281 36.1158 3.97908 40.7486 7.61524 44.3848C11.2514 48.021 15.8841 50.4972 20.9276 51.5004C25.9712 52.5036 31.1989 51.9888 35.9498 50.0208C40.7007 48.053 44.7613 44.7205 47.6183 40.4448C50.4752 36.1691 52 31.1423 52 26H40.3012C40.3012 29.7929 38.7944 33.4304 36.1124 36.1124C33.4304 38.7944 29.7929 40.3011 26 40.3011Z" fill="#2354E6"/>
<path d="M40.3011 11.6973H26V25.9983H40.3011V11.6973Z" fill="#17E6A1"/>
</svg>
