<svg width="64" height="40" viewBox="0 0 64 40" fill="none" xmlns="http://www.w3.org/2000/svg">
<path d="M62.3785 27.8578L48.6865 3.76059C45.6983 -1.2578 38.339 -1.30301 35.44 3.98669L21.0786 29.0332C18.4026 33.6448 21.7031 39.3865 27.0997 39.3865H55.9562C61.3529 39.4317 65.4116 33.4639 62.3785 27.8578Z" fill="#003087"/>
<path d="M42.6196 29.7557L41.7722 28.2637C40.9694 26.8622 39.23 23.8783 39.23 23.8783L27.6339 3.44319C24.6456 -1.0779 17.5096 -1.4848 14.5213 4.25699L1.00739 27.9472C-1.80244 32.9204 1.5426 39.3855 7.60828 39.4307H36.2864H48.5068H55.7768C48.373 39.476 46.0093 35.5426 42.6196 29.7557Z" fill="#1877F2"/>
<path d="M42.622 29.6679L41.7746 28.1759C40.9718 26.7744 39.2324 23.7905 39.2324 23.7905L31.7395 10.4082L20.9908 29.0349C18.3147 33.6464 21.6152 39.3882 27.0118 39.3882H36.2441H48.4647H55.7792C48.3309 39.343 46.0117 35.5 42.622 29.6679Z" fill="url(#paint0_linear_4735_682)"/>
<defs>
<linearGradient id="paint0_linear_4735_682" x1="17.1546" y1="20.5931" x2="50.5817" y2="32.7788" gradientUnits="userSpaceOnUse">
<stop stop-color="#003087" stop-opacity="0"/>
<stop offset="1" stop-color="#003087"/>
</linearGradient>
</defs>
</svg>
