<svg width="376" height="66" viewBox="0 0 376 66" fill="none" xmlns="http://www.w3.org/2000/svg">
<g clip-path="url(#clip0_3419_634)">
<path d="M79.0202 33.0426L79.0534 45.2083L89.3905 51.2911V58.4136L73.0037 48.8027V29.485L79.0202 33.0426ZM79.0202 20.8769V27.9661L73 24.4049V17.3156L79.0202 13.7544L85.0699 17.3156L79.0202 20.8769ZM93.7075 17.3156L99.7277 13.7544L105.777 17.3156L99.7277 20.8769L93.7075 17.3156Z" fill="#FFC200"/>
<path d="M83.3702 42.6867V35.5642L89.3904 39.1254V46.2147L83.3702 42.6867ZM93.7074 53.8422L99.7276 57.4035L105.777 53.8422V60.9315L99.7276 64.4928L93.7074 60.9315V53.8422ZM114.411 17.3156L120.431 13.7544L126.481 17.3156V24.4049L120.431 27.9662V20.8769L114.411 17.3156ZM120.431 45.2083L120.465 33.0426L126.485 29.4813V48.799L110.098 58.4099V51.2874L120.431 45.2083Z" fill="#FFC200"/>
<path d="M116.114 42.6861L110.094 46.2141V39.1248L116.114 35.5636V42.6861Z" fill="#FFC200"/>
<path d="M116.114 23.3976L116.148 30.5201L105.781 36.6029V48.7981L99.7608 52.3262L93.7406 48.7981V36.6029L83.3739 30.5201V23.3976L89.4199 19.8364L99.7239 25.9487L110.091 19.8364L116.14 23.3976H116.114ZM83.3702 11.2356L99.7276 1.59149L116.114 11.2356L110.094 14.7968L99.7276 8.68447L89.3904 14.7968L83.3702 11.2356Z" fill="#FFC200"/>
<path d="M225.825 38.97V38.8713C225.825 34.2397 223.355 31.9239 219.354 30.3965C221.824 29.0171 223.899 26.849 223.899 22.9564V22.8579C223.899 17.4379 219.551 13.9396 212.487 13.9396H196.431V48.4304H212.882C220.688 48.4304 225.825 45.2769 225.825 38.97ZM216.34 24.2375C216.34 26.7997 214.216 27.8837 210.857 27.8837H203.841V20.5913H211.351C214.562 20.5913 216.34 21.8724 216.34 24.139V24.2375ZM218.267 38.0339C218.267 40.596 216.241 41.7784 212.882 41.7784H203.841V34.1907H212.635C216.538 34.1907 218.267 35.6194 218.267 37.9352V38.0339Z" fill="#FFC200"/>
<path d="M263.308 48.4304V13.9396H255.798V35.1761L239.594 13.9396H232.579V48.4304H240.088V26.504L256.836 48.4304H263.308Z" fill="#FFC200"/>
<path d="M301.497 38.97V38.8713C301.497 34.2397 299.027 31.9239 295.026 30.3965C297.496 29.0171 299.57 26.849 299.57 22.9564V22.8579C299.57 17.4379 295.223 13.9396 288.159 13.9396H272.103V48.4304H288.554C296.359 48.4304 301.497 45.2769 301.497 38.97ZM292.012 24.2375C292.012 26.7997 289.888 27.8837 286.528 27.8837H279.513V20.5913H287.022C290.233 20.5913 292.012 21.8724 292.012 24.139V24.2375ZM293.939 38.0339C293.939 40.596 291.913 41.7784 288.554 41.7784H279.513V34.1907H288.307C292.21 34.1907 293.939 35.6194 293.939 37.9352V38.0339Z" fill="#FFC200"/>
<path d="M152.236 50.509C149.601 50.509 147.322 49.9491 145.399 48.8293C143.487 47.6981 142.011 46.1259 140.97 44.1125C139.93 42.0877 139.409 39.7406 139.409 37.0712C139.409 34.3791 139.93 32.0263 140.97 30.0129C142.011 27.9882 143.487 26.4159 145.399 25.2961C147.322 24.165 149.601 23.5994 152.236 23.5994C154.872 23.5994 157.145 24.165 159.057 25.2961C160.98 26.4159 162.462 27.9882 163.502 30.0129C164.543 32.0263 165.063 34.3791 165.063 37.0712C165.063 39.7406 164.543 42.0877 163.502 44.1125C162.462 46.1259 160.98 47.6981 159.057 48.8293C157.145 49.9491 154.872 50.509 152.236 50.509ZM152.27 44.9099C153.469 44.9099 154.47 44.5706 155.273 43.8919C156.077 43.2019 156.682 42.2631 157.089 41.0754C157.507 39.8877 157.717 38.536 157.717 37.0203C157.717 35.5046 157.507 34.1529 157.089 32.9652C156.682 31.7775 156.077 30.8386 155.273 30.1486C154.47 29.4587 153.469 29.1137 152.27 29.1137C151.06 29.1137 150.042 29.4587 149.216 30.1486C148.402 30.8386 147.785 31.7775 147.367 32.9652C146.96 34.1529 146.756 35.5046 146.756 37.0203C146.756 38.536 146.96 39.8877 147.367 41.0754C147.785 42.2631 148.402 43.2019 149.216 43.8919C150.042 44.5706 151.06 44.9099 152.27 44.9099ZM168.808 59.773V23.9387H175.934V28.3162H176.256C176.573 27.6149 177.031 26.9023 177.63 26.1784C178.241 25.4431 179.033 24.8323 180.006 24.3459C180.99 23.8482 182.212 23.5994 183.671 23.5994C185.571 23.5994 187.324 24.0971 188.93 25.0925C190.537 26.0766 191.821 27.564 192.782 29.5548C193.743 31.5343 194.224 34.0171 194.224 37.0033C194.224 39.9103 193.755 42.3649 192.816 44.367C191.888 46.3578 190.622 47.8678 189.015 48.8971C187.42 49.9152 185.633 50.4242 183.654 50.4242C182.251 50.4242 181.058 50.1923 180.074 49.7285C179.101 49.2648 178.304 48.6822 177.681 47.9809C177.059 47.2683 176.584 46.55 176.256 45.8261H176.036V59.773H168.808ZM175.883 36.9694C175.883 38.519 176.098 39.8707 176.528 41.0245C176.957 42.1782 177.58 43.0775 178.394 43.7222C179.208 44.3557 180.198 44.6724 181.363 44.6724C182.54 44.6724 183.535 44.35 184.349 43.7053C185.164 43.0492 185.78 42.1443 186.199 40.9905C186.629 39.8255 186.844 38.4851 186.844 36.9694C186.844 35.465 186.634 34.1415 186.216 32.9991C185.797 31.8567 185.181 30.9631 184.366 30.3183C183.552 29.6736 182.551 29.3512 181.363 29.3512C180.187 29.3512 179.191 29.6623 178.377 30.2844C177.574 30.9065 176.957 31.7888 176.528 32.9312C176.098 34.0737 175.883 35.4197 175.883 36.9694Z" fill="#FFC200"/>
</g>
<defs>
<clipPath id="clip0_3419_634">
<rect width="375.27" height="65.57" fill="white"/>
</clipPath>
</defs>
</svg>
