<svg width="52" height="54" viewBox="0 0 52 54" fill="none" xmlns="http://www.w3.org/2000/svg">
<path fill-rule="evenodd" clip-rule="evenodd" d="M25.5756 53.7024C17.6822 53.6965 11.3236 51.8024 6.88102 48.4002C2.38516 44.9573 0 40.0713 0 34.5425C0 29.2154 2.37975 25.3742 5.07262 22.7776C7.18305 20.7428 9.5117 19.4398 11.1333 18.69C10.7666 17.5646 10.3091 16.0915 9.89972 14.5697C9.35217 12.5336 8.81489 10.1444 8.81489 8.39389C8.81489 6.32184 9.26645 4.24061 10.4846 2.62365C11.7717 0.915289 13.7093 0 16.0401 0C17.8618 0 19.4084 0.675718 20.619 1.84139C21.7763 2.95542 22.5469 4.4353 23.0788 5.9779C24.0133 8.68835 24.3772 12.0937 24.4792 15.4923H26.7118C26.814 12.0937 27.1777 8.68835 28.1125 5.9779C28.6443 4.4353 29.4144 2.95569 30.572 1.84139C31.7828 0.675989 33.3292 0 35.1509 0C37.4819 0 39.4193 0.915289 40.7064 2.62365C41.9245 4.24061 42.3764 6.32184 42.3764 8.39389C42.3764 10.1444 41.8388 12.5336 41.2913 14.5697C40.8819 16.0915 40.4244 17.5646 40.0577 18.69C41.6793 19.4398 44.0082 20.7428 46.1184 22.7778C48.8112 25.3742 51.191 29.2154 51.191 34.5425C51.191 40.0713 48.8061 44.9573 44.31 48.4002C39.8674 51.8024 33.5088 53.6965 25.6154 53.7024H25.5756Z" fill="#633001"/>
<path d="M16.0424 1.9668C12.6286 1.9668 11.0571 4.53988 11.0571 8.09801C11.0571 10.9263 12.8831 16.5906 13.6321 18.7957C13.8008 19.2918 13.5358 19.8351 13.0529 20.0273C10.3167 21.1173 2.24219 25.1078 2.24219 34.2469C2.24219 43.8738 10.4479 51.1325 25.58 51.1442L25.5979 51.1439L25.616 51.1442C40.7478 51.1325 48.9535 43.8738 48.9535 34.2469C48.9535 25.1078 40.879 21.1173 38.1429 20.0273C37.6599 19.8353 37.3952 19.2918 37.5637 18.7957C38.3129 16.5909 40.1389 10.9263 40.1389 8.09801C40.1389 4.53961 38.5674 1.9668 35.1534 1.9668C30.2392 1.9668 29.014 8.99897 28.9267 16.5465C28.921 17.0503 28.5176 17.4591 28.019 17.4591H23.177C22.6781 17.4591 22.275 17.0503 22.269 16.5465C22.1817 8.99897 20.9568 1.9668 16.0424 1.9668Z" fill="#D1884F"/>
<path d="M25.616 48.0626C14.4979 48.0626 2.26139 42.0504 2.24219 34.2676V34.3038C2.24219 43.9385 10.4609 51.2011 25.616 51.2011C40.7711 51.2011 48.9898 43.9385 48.9898 34.3038V34.2676C48.9706 42.0504 36.7341 48.0626 25.616 48.0626Z" fill="#FEDC90"/>
<path d="M19.4385 31.8751C19.4385 34.5028 18.2092 35.8713 16.6929 35.8713C15.1765 35.8713 13.9473 34.5028 13.9473 31.8751C13.9473 29.2474 15.1765 27.8789 16.6929 27.8789C18.2092 27.8789 19.4385 29.2474 19.4385 31.8751ZM37.2848 31.8751C37.2848 34.5028 36.0556 35.8713 34.5392 35.8713C33.0229 35.8713 31.7936 34.5028 31.7936 31.8751C31.7936 29.2474 33.0229 27.8789 34.5392 27.8789C36.0556 27.8789 37.2848 29.2474 37.2848 31.8751Z" fill="#633001"/>
</svg>
