<svg width="266" height="99" viewBox="0 0 266 99" fill="none" xmlns="http://www.w3.org/2000/svg">
<g clip-path="url(#clip0_4627_505)">
<path d="M194.426 46.5392C196.16 44.5592 198.079 43.967 200.312 44.0966C203.043 44.2631 204.851 45.725 204.998 48.4822C205.22 52.6272 205.146 56.7908 205.201 60.9543C205.201 62.3422 204.168 61.9536 203.393 62.0276C202.489 62.1201 202.028 61.824 202.046 60.7878C202.083 57.2719 202.065 53.756 202.046 50.2401C202.046 47.705 201.197 46.8538 198.836 46.8538C195.976 46.8538 194.407 48.1121 194.407 50.4067C194.407 53.7745 194.37 57.1424 194.426 60.5102C194.444 61.639 194.149 62.1016 192.931 62.0646C191.861 62.0276 191.326 61.8796 191.344 60.6027C191.4 53.2194 191.4 45.8545 191.344 38.4712C191.344 37.1388 191.972 37.0833 192.986 37.0648C194.094 37.0278 194.444 37.4349 194.426 38.5267C194.37 41.0803 194.407 43.634 194.407 46.5577L194.426 46.5392Z" fill="black"/>
<path d="M219.723 51.5354C220.443 48.1305 219.446 46.7612 216.291 46.8722C214.889 46.9277 213.449 47.2053 212.102 47.6124C211.161 47.8899 210.774 47.6864 210.386 46.8722C209.98 46.021 210.11 45.5213 210.977 45.1328C213.8 43.8559 216.734 43.7449 219.649 44.5221C221.697 45.0772 222.749 46.7242 222.804 48.7412C222.915 53.0898 222.841 57.4384 222.841 61.8055C220.479 62.3791 220.184 62.2126 219.723 59.8625C218.025 62.3421 215.59 62.3051 213.136 62.0645C210.368 61.8055 208.578 59.5849 208.67 56.5686C208.763 53.5524 210.368 51.7759 213.246 51.6094C214.335 51.5354 215.424 51.5539 216.512 51.5354C217.583 51.5354 218.671 51.5354 219.705 51.5354H219.723ZM219.815 54.0335C217.804 54.0335 215.885 53.9965 213.985 54.0335C212.582 54.0705 211.863 54.8847 211.77 56.2911C211.623 58.4006 212.435 59.2888 214.575 59.3073C219.04 59.3443 220.35 58.086 219.834 54.015L219.815 54.0335Z" fill="black"/>
<path d="M138.092 54.4977C138.092 55.2379 137.926 55.9781 138.129 56.5887C138.387 57.3844 138.793 58.2912 139.421 58.7908C140.86 59.9196 144.698 59.568 145.897 58.1801C146.783 57.1624 147.41 57.588 148.111 58.2171C148.979 58.9943 148.056 59.4199 147.705 59.9011C145.768 62.6398 141.45 62.5287 138.849 61.696C136.321 60.8818 135.011 58.6057 134.974 55.3489C134.974 53.4614 134.918 51.5925 135.029 49.705C135.232 46.4112 137.52 44.2461 140.786 44.0981C141.58 44.0611 142.373 44.0611 143.148 44.0981C145.842 44.1906 148.093 45.9855 148.647 48.6317C148.905 49.8715 148.868 51.1854 148.942 52.4622C149.034 53.776 148.48 54.3497 147.115 54.3126C144.255 54.2571 141.395 54.3126 138.535 54.3126C138.443 54.3126 138.35 54.3682 138.092 54.4607V54.4977ZM138.147 51.7405H145.602C146.026 49.6865 145.62 48.1136 144.532 47.3549C143.535 46.6517 140.472 46.6147 139.421 47.3549C137.871 48.4282 138.037 50.0381 138.147 51.759V51.7405Z" fill="black"/>
<path d="M252.512 57.1431C253.877 56.9951 255.169 56.477 255.962 58.2349C256.184 58.7345 257.014 59.1787 257.623 59.2712C258.674 59.4377 259.8 59.4007 260.87 59.2897C262.162 59.1602 262.937 58.383 262.992 57.0321C263.048 55.6998 262.42 54.8486 261.11 54.6265C259.708 54.3859 258.269 54.2564 256.866 53.9974C253.766 53.4237 252.475 51.7768 252.678 48.7605C252.862 45.8923 254.431 44.3194 257.475 44.1899C259.044 44.1159 260.649 44.1529 262.162 44.5045C264.542 45.0596 265.705 46.9471 265.502 49.3712C263.509 49.9448 263.214 49.7413 262.217 48.1869C261.848 47.5947 261.055 47.1136 260.372 46.9471C259.542 46.7435 258.601 46.8175 257.715 46.9286C256.589 47.0581 255.778 47.5762 255.704 48.8901C255.63 50.2039 256.22 50.9996 257.438 51.2587C258.841 51.5547 260.261 51.6843 261.664 51.9618C265.133 52.6835 266.387 54.5155 265.889 58.0499C265.575 60.2334 263.989 61.7878 261.553 62.0099C260.04 62.1579 258.49 62.1579 256.977 62.0099C254.301 61.7508 252.696 59.9929 252.493 57.1431H252.512Z" fill="black"/>
<path d="M238.414 46.1689C240.019 44.411 242.049 43.9114 244.319 44.1149C246.662 44.3185 248.249 45.5398 248.599 47.8899C248.876 49.7403 248.858 51.6278 248.876 53.4968C248.913 55.9209 248.839 58.345 248.913 60.7691C248.95 62.1014 248.157 61.9904 247.289 62.0089C246.348 62.0459 245.832 61.8794 245.85 60.7321C245.906 57.4198 245.906 54.1074 245.85 50.7766C245.832 49.3147 245.942 47.7048 244.153 47.0201C242.492 46.3725 239.724 47.0016 238.672 48.334C238.34 48.7411 238.23 49.4072 238.23 49.9624C238.193 53.3857 238.174 56.7906 238.23 60.214C238.23 61.3613 238.137 62.0459 236.68 62.0459C235.296 62.0459 235.037 61.4908 235.056 60.288C235.111 55.4953 235.074 50.6841 235.056 45.8914C235.056 44.9661 234.964 44.1334 236.384 44.1519C237.602 44.1704 238.451 44.3185 238.23 45.8173C238.23 45.8914 238.303 45.9654 238.414 46.1504V46.1689Z" fill="black"/>
<path d="M184.812 49.3705C183.65 46.9649 181.325 46.1137 178.871 47.2055C177.672 47.7236 177.229 48.7599 177.21 49.9627C177.155 52.0907 177.155 54.2188 177.21 56.3468C177.266 58.2158 178.354 59.2705 180.199 59.3261C182.082 59.4001 183.945 59.4926 185.311 57.6976C186.012 56.7909 186.658 57.7717 187.137 58.1973C187.377 58.4193 187.396 59.215 187.174 59.5111C186.03 61.1025 184.517 62.1388 182.451 62.1203C181.51 62.1203 180.569 62.1573 179.646 62.1018C176.675 61.8982 174.498 59.8257 174.166 56.8279C174.037 55.6066 174.018 54.3668 173.944 53.1085C174.018 51.8317 174 50.5363 174.184 49.278C174.516 46.8539 175.826 45.0219 178.244 44.5223C179.978 44.1707 181.897 44.1522 183.65 44.4298C185.827 44.7814 187.156 46.3728 187.636 48.5378" fill="black"/>
<path d="M125.176 57.7171C126.32 53.9051 127.464 50.0746 128.608 46.2627C129.291 43.9866 129.512 43.8756 132.133 44.4492C132.022 44.8563 131.948 45.2819 131.819 45.689C130.195 50.6113 128.571 55.5335 126.966 60.4558C126.652 61.418 126.32 62.0842 125.066 62.0842C123.755 62.0842 123.423 61.3995 123.091 60.3817C121.523 55.589 119.917 50.8333 118.331 46.0591C118.165 45.5595 118.054 45.0414 117.906 44.5417C120.213 43.783 120.748 44.0421 121.357 46.0776C122.519 49.9451 123.663 53.8126 124.826 57.6801C124.936 57.6801 125.047 57.7171 125.158 57.7356L125.176 57.7171Z" fill="black"/>
<path d="M155.677 46.4653C157.762 44.1892 160.013 43.8377 162.394 44.2263C162.855 44.3003 163.648 45.1145 163.593 45.2255C163.187 46.0027 163.316 47.3535 161.766 47.076C160.862 46.9094 159.903 46.8354 158.98 46.9279C156.71 47.187 155.696 48.3898 155.696 50.6289C155.696 53.9042 155.659 57.161 155.714 60.4364C155.732 61.6762 155.327 62.0463 154.09 62.0463C152.799 62.0463 152.503 61.5651 152.522 60.3808C152.577 55.6807 152.522 50.962 152.559 46.2618C152.559 45.4661 152.005 44.2633 153.629 44.1707C155.013 44.0782 156.009 44.2818 155.64 46.4468L155.677 46.4653Z" fill="black"/>
<path d="M170.014 53.0155C170.014 55.5877 169.977 58.1598 170.032 60.732C170.051 61.8607 169.515 62.0643 168.574 62.0273C167.726 61.9903 166.858 62.1383 166.858 60.843C166.877 55.6987 166.877 50.5544 166.858 45.4101C166.858 43.9667 167.836 44.2628 168.704 44.2073C169.645 44.1518 170.032 44.4664 170.014 45.4656C169.958 47.9822 170.014 50.5174 170.014 53.034V53.0155Z" fill="black"/>
<path d="M230.554 53.2203C230.554 55.737 230.518 58.2721 230.573 60.7887C230.61 61.9545 229.982 62.0471 229.097 62.0286C228.211 62.0286 227.455 62.1026 227.473 60.7887C227.528 55.6444 227.528 50.5001 227.473 45.3743C227.473 44.1345 228.193 44.2086 229.023 44.2086C229.835 44.2086 230.61 44.116 230.573 45.3743C230.518 48.002 230.573 50.6112 230.573 53.2388L230.554 53.2203Z" fill="black"/>
<path d="M168.464 37.0469H168.445C167.559 37.0469 166.84 37.7677 166.84 38.6568V38.6753C166.84 39.5644 167.559 40.2852 168.445 40.2852H168.464C169.35 40.2852 170.069 39.5644 170.069 38.6753V38.6568C170.069 37.7677 169.35 37.0469 168.464 37.0469Z" fill="black"/>
<path d="M228.986 37.0469H228.968C228.081 37.0469 227.362 37.7677 227.362 38.6568V38.6753C227.362 39.5644 228.081 40.2852 228.968 40.2852H228.986C229.873 40.2852 230.591 39.5644 230.591 38.6753V38.6568C230.591 37.7677 229.873 37.0469 228.986 37.0469Z" fill="black"/>
<path d="M50.1149 61.603H47.4763V60.0301C47.4763 53.2944 47.4763 46.5402 47.4763 39.8045C47.4763 38.8978 47.2918 38.4166 46.3507 38.0836C32.7518 33.0318 19.1713 27.9245 5.59087 22.8357C5.27719 22.7247 4.94506 22.6507 4.48377 22.5211C4.48377 23.1133 4.48377 23.5944 4.48377 24.0755C4.48377 39.6379 4.48377 55.2004 4.44686 70.7628C4.44686 71.8731 4.76054 72.3912 5.77539 72.8353C12.6948 75.8516 19.5773 78.9789 26.4967 81.9952C27.6407 82.4948 28.2127 83.0499 28.2127 84.3452C28.2127 85.4925 28.5633 86.6583 28.8031 88.0462C26.2752 86.9544 23.9134 85.9551 21.5885 84.9559C14.8352 82.0507 8.08185 79.1269 1.31007 76.2587C0.369034 75.8516 0 75.389 0 74.3157C0.0369034 56.1256 0.0369034 37.9355 0 19.7454C0 18.6907 0.313679 18.2095 1.31007 17.8209C16.625 11.955 31.903 6.05197 47.218 0.204489C47.8822 -0.0545762 48.7864 -0.0730808 49.4322 0.16748C64.7286 6.01496 80.0251 11.9365 95.3216 17.7839C96.3918 18.191 96.7239 18.6907 96.7055 19.8009C96.6686 37.9355 96.687 56.0886 96.687 74.2232C96.687 75.0374 96.7239 75.6851 95.7275 76.1107C86.6862 79.9411 77.6633 83.8456 68.6404 87.7316C68.4559 87.8056 68.2714 87.8426 67.9392 87.9166C68.1607 86.2697 68.3083 84.6598 68.6404 83.1054C68.7142 82.7168 69.3785 82.3837 69.8398 82.1617C76.7776 79.0529 83.7339 75.9811 90.6718 72.8908C91.1699 72.6688 91.6497 72.4467 92.1294 72.2247V22.8172C90.3396 23.4834 88.6974 24.094 87.0368 24.7232C75.1908 29.1458 63.3632 33.5684 51.5172 37.9355C50.4286 38.3426 50.0411 38.8422 50.0411 40.045C50.1149 46.6327 50.078 53.2204 50.078 59.8266V61.603H50.1149ZM7.03011 20.3931C7.58366 20.6336 7.86043 20.7447 8.13721 20.8557C21.3671 25.7965 34.5785 30.7372 47.8084 35.6224C48.4542 35.863 49.3584 35.752 50.0226 35.5114C60.3002 31.7365 70.5594 27.906 80.837 24.0755C83.9922 22.9097 87.129 21.7069 90.4688 20.4486C90.0075 20.2265 89.8045 20.1155 89.5647 20.023C76.2794 14.8602 62.9757 9.67888 49.672 4.57159C49.0631 4.34954 48.2143 4.42355 47.587 4.66412C39.8373 7.62486 32.1244 10.6596 24.3932 13.6574C18.6916 15.8779 12.99 18.08 7.01165 20.4116L7.03011 20.3931Z" fill="black"/>
<path d="M63.0127 83.7149C63.0127 80.2361 62.2193 79.1258 59.0087 78.071C58.1783 70.003 54.7832 65.9319 48.7311 65.8209C46.1847 65.7654 43.8967 66.6166 41.9224 68.282C38.8594 70.8727 37.9922 74.3146 38.232 78.0895C35.1137 78.9407 34.1357 80.199 34.1357 83.3078C34.1357 86.8237 34.1357 90.3396 34.1357 93.8555C34.1357 97.3529 35.7041 98.9443 39.21 98.9628C45.4835 98.9813 51.7571 98.9813 58.0123 98.9628C61.4074 98.9628 63.0127 97.3159 63.0311 93.948C63.0496 90.5247 63.0311 87.1198 63.0311 83.6964L63.0127 83.7149ZM54.857 78.4781H42.3283C41.9039 75.2398 42.6235 72.5751 45.4835 70.9652C47.6609 69.7439 49.9489 69.8179 52.0524 71.2428C54.6171 72.9822 55.0415 75.5544 54.8386 78.4781H54.857Z" fill="black"/>
</g>
<defs>
<clipPath id="clip0_4627_505">
<rect width="266" height="99" fill="white"/>
</clipPath>
</defs>
</svg>
