<svg width="300" height="300" viewBox="0 0 300 300" fill="none" xmlns="http://www.w3.org/2000/svg">
<path d="M222.191 253.276C221.462 253.393 220.864 252.994 220.238 252.753C209.869 248.779 199.494 244.825 189.152 240.776C187.53 240.143 186.209 240.17 184.635 240.968C177.539 244.55 169.982 246.682 162.123 247.823C157.867 248.442 153.59 248.786 149.293 248.69C136.27 248.394 123.935 245.341 112.418 239.173C106.436 235.969 100.949 232.057 95.9293 227.478C90.2223 222.266 85.4023 216.325 81.3593 209.759C80.5686 208.48 79.716 207.923 78.1345 207.792C66.198 206.802 54.3509 205.269 42.9645 201.308C38.5089 199.761 34.2528 197.808 30.5329 194.831C28.7246 193.38 27.1912 191.689 26.1599 189.598C24.5509 186.346 24.6815 183.073 26.1461 179.814C27.7069 176.349 30.1754 173.585 32.9807 171.089C38.5983 166.104 45.0685 162.439 51.7518 159.111C58.1601 155.927 64.7678 153.211 71.5062 150.812C72.5995 150.427 73.1564 149.863 73.4521 148.742C76.8281 135.939 82.982 124.622 91.8037 114.762C103.046 102.199 116.811 93.8039 133.231 89.8365C140.753 88.0144 148.392 87.4781 156.079 88.0007C166.538 88.7158 176.48 91.4799 185.838 96.2105C200.786 103.76 212.461 114.803 220.829 129.318C221.441 130.384 222.101 130.796 223.394 130.769C226.199 130.72 228.984 131.202 231.762 131.594C238.163 132.501 244.537 133.546 250.781 135.293C253.985 136.187 257.113 137.28 260.201 138.49C262.181 139.267 263.803 140.649 265.681 141.564C267.296 142.348 268.727 143.331 270.012 144.562C275.183 149.519 275.788 155.48 271.731 161.421C268.947 165.492 265.241 168.62 261.253 171.426C254.425 176.232 246.985 179.897 239.325 183.142C236.273 184.435 233.178 185.645 230.064 186.8C229.19 187.123 228.805 187.618 228.578 188.464C226.213 197.444 222.466 205.798 217.164 213.423C216.553 214.297 216.401 215.135 216.566 216.146C218.285 226.941 219.977 237.736 221.682 248.525C221.854 249.597 222.046 250.67 222.211 251.743C222.287 252.244 222.466 252.753 222.177 253.262L222.191 253.276ZM227.231 142.444C227.052 143.104 227.32 143.503 227.444 143.936C227.946 145.696 228.4 147.47 228.957 149.217C229.232 150.076 229.046 150.55 228.276 151.032C221.936 155.006 215.081 157.598 207.731 158.966C206.906 159.118 206.548 158.856 206.459 158.059C206.431 157.777 206.321 157.502 206.259 157.227C202.87 142.815 195.21 131.215 183.26 122.497C177.181 118.069 170.464 115.037 163.1 113.283C155.378 111.441 147.698 111.282 139.976 112.912C130.927 114.823 122.835 118.715 115.766 124.725C107.818 131.484 101.939 139.673 98.3014 149.478C95.3036 157.557 94.2997 165.897 94.7672 174.458C94.8085 175.262 95.558 176.294 94.7122 176.844C94.0728 177.263 93.0483 177.105 92.2025 177.201C92.0925 177.215 91.9756 177.201 91.8587 177.208C86.8669 177.408 81.9025 177.064 76.945 176.5C75.1848 176.301 73.4452 175.943 71.6987 175.654C71.1555 175.565 70.7223 175.407 70.7223 174.712C70.7223 172.539 70.3442 170.38 70.6054 168.194C70.7705 166.798 70.8667 165.375 70.6467 164.013C70.2617 163.841 70.0004 163.951 69.7322 164.068C67.0713 165.23 64.3759 166.324 61.8456 167.761C60.0991 168.751 58.4283 169.858 56.8812 171.144C55.9049 171.955 55.066 172.897 54.4678 174.025C53.5121 175.826 53.7183 177.256 55.1004 178.741C55.9324 179.635 56.9569 180.261 58.0432 180.79C59.9066 181.698 61.8731 182.31 63.874 182.805C69.4503 184.18 75.1435 184.765 80.8574 185.122C88.0014 185.569 95.166 185.72 102.324 185.452C109.819 185.177 117.313 184.889 124.78 184.194C129.05 183.795 133.334 183.493 137.604 183.018C142.891 182.434 148.172 181.774 153.439 181.038C158.988 180.261 164.55 179.491 170.065 178.48C176.679 177.27 183.301 176.081 189.867 174.623C202.67 171.783 215.342 168.517 227.616 163.848C232.223 162.095 236.706 160.08 240.852 157.378C242.495 156.306 244.008 155.082 245.204 153.521C246.882 151.327 246.641 149.265 244.558 147.477C243.417 146.494 242.069 145.854 240.673 145.318C236.369 143.675 231.865 142.98 227.224 142.437L227.231 142.444Z" fill="white"/>
<path d="M97.5517 52.4805C97.5242 55.0864 95.8189 57.1767 93.1992 57.6993C91.0677 58.1187 88.8949 58.2356 86.7566 58.655C72.3654 61.4947 60.3739 68.4256 50.8508 79.5989C46.7321 84.4257 43.473 89.7752 40.9702 95.6059C39.9594 97.9574 37.8691 99.2364 35.552 99.0232C31.8046 98.6725 29.5906 95.2071 30.952 91.6798C31.8184 89.4383 32.8773 87.2724 34.0324 85.1683C37.9448 78.0381 42.8129 71.6366 48.8018 66.1153C56.0902 59.3976 64.3962 54.3851 73.7474 51.0365C79.1656 49.0975 84.7213 47.8943 90.4008 47.1104C92.5392 46.8148 94.5125 47.0348 96.0802 48.74C97.0566 49.7989 97.5654 51.0297 97.5448 52.4736L97.5517 52.4805Z" fill="white"/>
<path d="M54.6259 106.531C50.7891 106.524 48.3757 102.99 49.689 99.1804C50.851 95.8112 52.46 92.6415 54.399 89.6642C62.7531 76.827 74.504 69.1329 89.5965 66.5544C90.7241 66.3619 91.8587 66.2244 92.9863 66.0731C96.0117 65.6743 98.8789 67.7715 99.2433 70.6387C99.6421 73.8429 97.5381 76.5519 94.2858 76.8614C90.676 77.2051 87.1625 77.934 83.7589 79.1579C79.8534 80.5606 76.2848 82.5615 72.95 85.0436C66.7686 89.6505 62.65 95.7494 59.8103 102.804C58.7995 105.307 57.1355 106.538 54.6327 106.531H54.6259Z" fill="white"/>
<path d="M98.253 88.2969C98.1843 90.504 97.1529 92.0992 95.1589 93.0412C94.2788 93.4538 93.3437 93.7494 92.4429 94.1001C89.2113 95.3652 86.2546 97.1942 83.7656 99.5389C80.9808 102.165 78.7187 105.301 77.1166 108.842C76.9722 109.151 76.8485 109.475 76.6903 109.777C75.3014 112.417 72.3035 113.483 69.6563 112.287C66.9747 111.07 65.7714 107.969 66.9747 105.184C68.7349 101.1 71.1209 97.4005 74.1119 94.1138C78.7118 89.0532 84.295 85.4502 90.7377 83.195C93.9694 82.0604 96.9879 83.4356 98.0124 86.4266C98.2255 87.0454 98.2461 87.6574 98.2599 88.2969H98.253Z" fill="white"/>
<path d="M156.533 149.045C162.301 149.086 166.771 153.769 166.785 159.407C166.798 164.88 161.813 169.734 156.484 169.673C150.509 169.597 146.061 164.921 146.109 159.297C146.164 152.806 151.499 148.811 156.539 149.052L156.533 149.045Z" fill="white"/>
<path d="M124.815 158.65C125.117 163.848 120.112 169.17 114.542 169.053C109.31 168.943 104.29 165.072 104.256 158.787C104.222 152.627 109.014 148.529 114.425 148.426C119.94 148.322 124.952 152.915 124.815 158.65Z" fill="white"/>
</svg>
