<svg width="300" height="300" viewBox="0 0 300 300" fill="none" xmlns="http://www.w3.org/2000/svg">
<path d="M151.349 82.3925L112.932 113.429C106.542 118.575 105.312 127.839 110.154 134.45C115.273 141.496 125.235 142.882 132.101 137.537L171.511 106.976C174.289 104.838 178.258 105.313 180.44 108.085C182.623 110.856 182.107 114.814 179.329 116.992L171.034 123.405L226.2 174.076V99.3358H225.922L224.374 98.3461L195.561 79.9381C189.489 76.0585 182.385 74 175.162 74C166.51 74 158.096 76.969 151.349 82.3925ZM160.398 131.639L139.88 147.553C127.378 157.291 109.241 154.758 99.8747 141.932C91.0641 129.857 93.2866 112.993 104.915 103.611L137.935 76.969C133.331 75.0293 128.37 74.0396 123.33 74.0396C115.869 74 108.606 76.2169 102.375 80.3339L73.8 99.3358V188.011H84.9919L121.266 221.027C129.045 228.113 141.07 227.559 148.174 219.799C150.357 217.385 151.826 214.574 152.58 211.644L159.327 217.82C167.066 224.906 179.131 224.392 186.235 216.672C188.021 214.732 189.33 212.476 190.164 210.14C197.863 215.287 208.341 214.218 214.81 207.171C221.914 199.452 221.398 187.417 213.659 180.331L160.398 131.639ZM29.35 99.3358C25.8575 99.3358 23 102.186 23 105.67V188.011C23 195.018 28.6753 200.679 35.7 200.679H48.4C55.4247 200.679 61.1 195.018 61.1 188.011V99.3358H29.35ZM42.05 175.343C43.7341 175.343 45.3493 176.01 46.5401 177.198C47.731 178.386 48.4 179.997 48.4 181.677C48.4 183.357 47.731 184.968 46.5401 186.156C45.3493 187.344 43.7341 188.011 42.05 188.011C40.3659 188.011 38.7507 187.344 37.5599 186.156C36.369 184.968 35.7 183.357 35.7 181.677C35.7 179.997 36.369 178.386 37.5599 177.198C38.7507 176.01 40.3659 175.343 42.05 175.343ZM238.9 99.3358V188.011C238.9 195.018 244.575 200.679 251.6 200.679H264.3C271.325 200.679 277 195.018 277 188.011V105.67C277 102.186 274.142 99.3358 270.65 99.3358H238.9ZM251.6 181.677C251.6 179.997 252.269 178.386 253.46 177.198C254.651 176.01 256.266 175.343 257.95 175.343C259.634 175.343 261.249 176.01 262.44 177.198C263.631 178.386 264.3 179.997 264.3 181.677C264.3 183.357 263.631 184.968 262.44 186.156C261.249 187.344 259.634 188.011 257.95 188.011C256.266 188.011 254.651 187.344 253.46 186.156C252.269 184.968 251.6 183.357 251.6 181.677Z" fill="white"/>
</svg>
