<svg width="300" height="300" viewBox="0 0 300 300" fill="none" xmlns="http://www.w3.org/2000/svg">
<g clip-path="url(#clip0_2319_82)">
<path d="M105.333 61C93.0151 61 83 70.9777 83 83.25V216.75C83 229.022 93.0151 239 105.333 239H194.667C206.985 239 217 229.022 217 216.75V116.625H172.333C166.157 116.625 161.167 111.654 161.167 105.5V61H105.333ZM172.333 61V105.5H217L172.333 61ZM110.917 83.25H133.25C136.321 83.25 138.833 85.7531 138.833 88.8125C138.833 91.8719 136.321 94.375 133.25 94.375H110.917C107.846 94.375 105.333 91.8719 105.333 88.8125C105.333 85.7531 107.846 83.25 110.917 83.25ZM110.917 105.5H133.25C136.321 105.5 138.833 108.003 138.833 111.062C138.833 114.122 136.321 116.625 133.25 116.625H110.917C107.846 116.625 105.333 114.122 105.333 111.062C105.333 108.003 107.846 105.5 110.917 105.5ZM129.83 193.735C127.702 200.793 121.176 205.625 113.778 205.625H110.917C107.846 205.625 105.333 203.122 105.333 200.062C105.333 197.003 107.846 194.5 110.917 194.5H113.778C116.256 194.5 118.419 192.901 119.117 190.537L124.317 173.328C125.503 169.399 129.132 166.688 133.25 166.688C137.368 166.688 140.997 169.364 142.183 173.328L146.231 186.747C148.814 184.592 152.094 183.375 155.583 183.375C161.132 183.375 166.192 186.504 168.669 191.441L170.205 194.5H189.083C192.154 194.5 194.667 197.003 194.667 200.062C194.667 203.122 192.154 205.625 189.083 205.625H166.75C164.621 205.625 162.702 204.443 161.76 202.566L158.689 196.412C158.096 195.23 156.909 194.5 155.618 194.5C154.327 194.5 153.106 195.23 152.547 196.412L149.477 202.566C148.465 204.617 146.266 205.834 143.998 205.625C141.73 205.416 139.776 203.852 139.147 201.696L133.25 182.332L129.83 193.735Z" fill="white"/>
</g>
<defs>
<clipPath id="clip0_2319_82">
<rect width="134" height="178" fill="white" transform="translate(83 61)"/>
</clipPath>
</defs>
</svg>
