<svg width="280" height="79" viewBox="0 0 280 79" fill="none" xmlns="http://www.w3.org/2000/svg">
<path d="M53.3052 15.0879C48.4048 11.5708 42.5708 9.58458 36.5406 9.3803C30.5104 9.17603 24.5549 10.7629 19.4274 13.9403C14.2999 17.1177 10.2306 21.7429 7.73403 27.231C5.23746 32.719 4.42581 38.8236 5.40169 44.7726C6.37757 50.7214 9.09717 56.2478 13.2166 60.6524C17.336 65.0572 22.6701 68.1425 28.5446 69.5182C34.419 70.8941 40.5697 70.4985 46.2193 68.3816C51.8687 66.2648 56.763 62.5217 60.2831 57.6257C62.6205 54.3749 64.2941 50.6958 65.2084 46.7988C66.1227 42.9018 66.2597 38.8629 65.6118 34.9128C64.9639 30.9629 63.5435 27.179 61.432 23.7775C59.3205 20.3759 56.5589 17.4232 53.3052 15.0879Z" fill="white"/>
<path d="M10.3105 57.0357C10.3105 57.0357 30.4696 50.4374 65.9994 38.8612C65.9994 38.8612 67.9454 57.8189 48.2772 67.7073C48.2772 67.7073 38.5784 72.3523 27.9379 69.3727C27.9379 69.3727 17.3426 67.3742 10.3105 57.0357Z" fill="#DDDDDD"/>
<path d="M84.3672 24.6147H94.9455C96.8336 24.6147 98.5411 24.9299 100.068 25.5599C101.623 26.1901 102.942 27.1353 104.025 28.3955C105.135 29.6271 105.982 31.1882 106.565 33.0785C107.176 34.9403 107.481 37.1171 107.481 39.6089C107.481 42.1008 107.176 44.2919 106.565 46.1822C105.982 48.044 105.135 49.605 104.025 50.8653C102.942 52.0969 101.623 53.0277 100.068 53.6579C98.5411 54.288 96.8336 54.6031 94.9455 54.6031H84.3672V24.6147ZM94.9455 49.5764C97.0001 49.5764 98.6244 48.9605 99.8183 47.7289C101.04 46.4686 101.651 44.5496 101.651 41.9719V37.2459C101.651 34.6681 101.04 32.7634 99.8183 31.5318C98.6244 30.2715 97.0001 29.6415 94.9455 29.6415H89.8645V49.5764H94.9455Z" fill="white"/>
<path d="M125.328 50.8652H125.12C124.925 51.4381 124.661 51.9823 124.328 52.4978C124.023 52.9847 123.62 53.4286 123.121 53.8296C122.648 54.2306 122.065 54.5457 121.371 54.7748C120.705 55.004 119.927 55.1186 119.039 55.1186C116.79 55.1186 115.069 54.3595 113.875 52.8414C112.681 51.3234 112.084 49.161 112.084 46.354V32.1761H117.415V45.7955C117.415 47.3422 117.706 48.5309 118.289 49.3616C118.872 50.1635 119.803 50.5645 121.08 50.5645C121.607 50.5645 122.121 50.4928 122.621 50.3496C123.148 50.2064 123.606 49.9916 123.995 49.7052C124.384 49.3901 124.703 49.0178 124.953 48.5881C125.203 48.1298 125.328 47.6 125.328 46.9986V32.1761H130.659V54.603H125.328V50.8652Z" fill="white"/>
<path d="M136.4 54.603V32.1762H141.731V35.9141H141.939C142.384 34.711 143.078 33.7085 144.022 32.9066C144.994 32.076 146.326 31.6606 148.02 31.6606C150.269 31.6606 151.99 32.4197 153.184 33.9378C154.378 35.4558 154.975 37.6182 154.975 40.4252V54.603H149.644V40.9837C149.644 39.3798 149.367 38.1767 148.811 37.3748C148.256 36.5728 147.34 36.1719 146.062 36.1719C145.507 36.1719 144.966 36.2577 144.438 36.4296C143.938 36.5728 143.48 36.8019 143.064 37.117C142.675 37.4035 142.356 37.7758 142.106 38.2341C141.856 38.6637 141.731 39.1792 141.731 39.7808V54.603H136.4Z" fill="white"/>
<path d="M169.254 55.1186C167.644 55.1186 166.2 54.8465 164.923 54.3023C163.674 53.7294 162.604 52.9418 161.716 51.9393C160.855 50.9081 160.19 49.6765 159.718 48.2445C159.245 46.7837 159.01 45.1511 159.01 43.3467C159.01 41.5709 159.231 39.9668 159.675 38.5348C160.148 37.1027 160.814 35.8854 161.675 34.8829C162.536 33.8517 163.59 33.0641 164.84 32.5199C166.089 31.9471 167.505 31.6606 169.088 31.6606C170.782 31.6606 172.254 31.9614 173.502 32.5629C174.752 33.1643 175.779 33.9806 176.584 35.0118C177.39 36.043 177.987 37.2459 178.376 38.6207C178.792 39.9668 179 41.4133 179 42.96V44.7645H164.549V45.323C164.549 46.9556 164.993 48.273 165.881 49.2756C166.77 50.2494 168.088 50.7364 169.838 50.7364C171.17 50.7364 172.254 50.4499 173.086 49.8771C173.946 49.3042 174.711 48.5738 175.377 47.686L178.251 50.9941C177.362 52.2829 176.14 53.2998 174.586 54.0445C173.058 54.7606 171.281 55.1186 169.254 55.1186ZM169.172 35.7851C167.756 35.7851 166.631 36.2721 165.797 37.2459C164.965 38.2197 164.549 39.48 164.549 41.0267V41.3703H173.461V40.9837C173.461 39.437 173.086 38.1911 172.336 37.2459C171.614 36.2721 170.559 35.7851 169.172 35.7851Z" fill="white"/>
</svg>
