<svg width="300" height="300" viewBox="0 0 300 300" fill="none" xmlns="http://www.w3.org/2000/svg">
<path d="M110.556 102.857C110.556 85.5223 124.706 71.4286 142.111 71.4286H157.889C175.294 71.4286 189.444 85.5223 189.444 102.857V104.625C189.444 115.33 183.972 125.299 174.949 131.045L154.142 144.353C141.717 152.308 134.222 166.009 134.222 180.692V181.429C134.222 190.121 141.273 197.143 150 197.143C158.727 197.143 165.778 190.121 165.778 181.429V180.741C165.778 176.714 167.849 172.982 171.201 170.821L192.008 157.513C210.054 145.924 221 126.036 221 104.625V102.857C221 68.1384 192.748 40 157.889 40H142.111C107.252 40 79 68.1384 79 102.857C79 111.549 86.0507 118.571 94.7778 118.571C103.505 118.571 110.556 111.549 110.556 102.857ZM150 260C155.231 260 160.247 257.93 163.946 254.247C167.644 250.563 169.722 245.567 169.722 240.357C169.722 235.148 167.644 230.151 163.946 226.468C160.247 222.784 155.231 220.714 150 220.714C144.769 220.714 139.753 222.784 136.054 226.468C132.356 230.151 130.278 235.148 130.278 240.357C130.278 245.567 132.356 250.563 136.054 254.247C139.753 257.93 144.769 260 150 260Z" fill="white"/>
</svg>
