<svg width="300" height="300" viewBox="0 0 300 300" fill="none" xmlns="http://www.w3.org/2000/svg">
<path d="M119.212 204.741C119.212 205.489 118.35 206.088 117.262 206.088C116.025 206.201 115.163 205.602 115.163 204.741C115.163 203.992 116.025 203.394 117.113 203.394C118.238 203.281 119.212 203.88 119.212 204.741ZM107.55 203.057C107.288 203.805 108.038 204.666 109.163 204.891C110.138 205.265 111.263 204.891 111.488 204.142C111.713 203.394 111 202.533 109.875 202.196C108.9 201.934 107.813 202.308 107.55 203.057ZM124.125 202.42C123.037 202.682 122.287 203.394 122.4 204.254C122.512 205.003 123.488 205.489 124.613 205.227C125.7 204.965 126.45 204.254 126.337 203.506C126.225 202.795 125.213 202.308 124.125 202.42ZM148.8 59C96.7875 59 57 98.4107 57 150.322C57 191.829 83.175 227.347 120.562 239.848C125.363 240.708 127.05 237.752 127.05 235.319C127.05 232.998 126.938 220.198 126.938 212.339C126.938 212.339 100.688 217.953 95.175 201.185C95.175 201.185 90.9 190.294 84.75 187.487C84.75 187.487 76.1625 181.611 85.35 181.723C85.35 181.723 94.6875 182.472 99.825 191.379C108.037 205.826 121.8 201.672 127.163 199.202C128.025 193.213 130.463 189.059 133.163 186.589C112.2 184.268 91.05 181.237 91.05 145.232C91.05 134.939 93.9 129.775 99.9 123.187C98.925 120.755 95.7375 110.724 100.875 97.7744C108.712 95.3417 126.75 107.88 126.75 107.88C134.25 105.784 142.313 104.698 150.3 104.698C158.288 104.698 166.35 105.784 173.85 107.88C173.85 107.88 191.888 95.3042 199.725 97.7744C204.863 110.762 201.675 120.755 200.7 123.187C206.7 129.812 210.375 134.977 210.375 145.232C210.375 181.349 188.288 184.231 167.325 186.589C170.775 189.546 173.7 195.16 173.7 203.955C173.7 216.568 173.587 232.175 173.587 235.244C173.587 237.677 175.313 240.633 180.075 239.773C217.575 227.347 243 191.829 243 150.322C243 98.4107 200.812 59 148.8 59ZM93.45 188.086C92.9625 188.46 93.075 189.321 93.7125 190.032C94.3125 190.631 95.175 190.893 95.6625 190.406C96.15 190.032 96.0375 189.171 95.4 188.46C94.8 187.861 93.9375 187.599 93.45 188.086ZM89.4 185.054C89.1375 185.541 89.5125 186.14 90.2625 186.514C90.8625 186.888 91.6125 186.776 91.875 186.252C92.1375 185.765 91.7625 185.167 91.0125 184.792C90.2625 184.568 89.6625 184.68 89.4 185.054ZM101.55 198.378C100.95 198.865 101.175 199.988 102.037 200.699C102.9 201.56 103.987 201.672 104.475 201.073C104.962 200.587 104.738 199.464 103.988 198.753C103.163 197.892 102.038 197.779 101.55 198.378ZM97.275 192.877C96.675 193.251 96.675 194.224 97.275 195.085C97.875 195.946 98.8875 196.32 99.375 195.946C99.975 195.459 99.975 194.486 99.375 193.625C98.85 192.764 97.875 192.39 97.275 192.877Z" fill="white"/>
</svg>
