<svg width="300" height="300" viewBox="0 0 300 300" fill="none" xmlns="http://www.w3.org/2000/svg">
<path d="M63.0625 70C51.9863 70 43 78.9583 43 90C43 96.2917 45.9676 102.208 51.025 106L141.975 174C146.74 177.542 153.26 177.542 158.025 174L248.975 106C254.032 102.208 257 96.2917 257 90C257 78.9583 248.014 70 236.938 70H63.0625ZM43 116.667V203.333C43 218.042 54.9957 230 69.75 230H230.25C245.004 230 257 218.042 257 203.333V116.667L166.05 184.667C156.52 191.792 143.48 191.792 133.95 184.667L43 116.667Z" fill="white"/>
</svg>
