<svg width="300" height="300" viewBox="0 0 300 300" fill="none" xmlns="http://www.w3.org/2000/svg">
<path d="M150 59C99.742 59 59 99.742 59 150C59 200.258 99.742 241 150 241C200.258 241 241 200.258 241 150C241 99.742 200.258 59 150 59ZM192.18 120.887C190.811 135.277 184.885 170.195 181.869 186.312C180.594 193.131 178.082 195.418 175.65 195.641C170.366 196.128 166.353 192.149 161.234 188.794C153.225 183.544 148.701 180.275 140.926 175.152C131.942 169.232 137.766 165.979 142.886 160.658C144.226 159.267 167.51 138.088 167.961 136.167C168.017 135.927 168.071 135.029 167.537 134.558C167.004 134.087 166.22 134.247 165.653 134.375C164.85 134.557 152.055 143.014 127.269 159.745C123.637 162.239 120.348 163.454 117.4 163.391C114.151 163.32 107.901 161.554 103.255 160.043C97.5557 158.191 93.0263 157.211 93.4208 154.065C93.6262 152.426 95.8829 150.751 100.191 149.038C126.719 137.48 144.409 129.86 153.26 126.178C178.531 115.667 183.783 113.841 187.205 113.78C187.958 113.767 189.642 113.954 190.732 114.838C191.457 115.469 191.919 116.348 192.027 117.303C192.212 118.488 192.263 119.691 192.18 120.887Z" fill="white"/>
</svg>
