<svg width="300" height="300" viewBox="0 0 300 300" fill="none" xmlns="http://www.w3.org/2000/svg">
<path d="M87.8571 63C74.1469 63 63 74.1469 63 87.8571V212.143C63 225.853 74.1469 237 87.8571 237H212.143C225.853 237 237 225.853 237 212.143V87.8571C237 74.1469 225.853 63 212.143 63H87.8571ZM203.249 95.625L162.933 141.688L210.356 204.375H173.226L144.174 166.351L110.889 204.375H92.4402L135.552 155.088L90.071 95.625H128.133L154.428 130.386L184.8 95.625H203.249ZM188.567 193.345L122.579 106.073H111.588L178.314 193.345H188.529H188.567Z" fill="white"/>
</svg>
