<svg width="74" height="74" viewBox="0 0 74 74" fill="none" xmlns="http://www.w3.org/2000/svg">
<circle cx="37" cy="37" r="37" fill="#3861FB"/>
<path d="M69.9769 36.5139V36.384C69.911 18.0018 54.8823 3 36.4885 3C18.0946 3 3 18.0018 3 36.5139C3 55.0284 18.0264 70 36.4885 70C44.9601 70.0056 53.1079 66.7929 59.2364 61.0305C59.8399 60.4871 60.1998 59.7298 60.2367 58.925C60.2737 58.1204 59.9845 57.3341 59.433 56.7394C58.8815 56.1448 58.1129 55.7903 57.296 55.7538C56.4793 55.7174 55.6813 56.0023 55.0777 56.5457L55.0118 56.6107C52.3675 59.0874 49.2424 61.0121 45.8243 62.2694C42.4062 63.5264 38.7654 64.0902 35.1205 63.9266C31.4759 63.7631 27.9022 62.8754 24.6143 61.3172C21.3263 59.759 18.3919 57.5624 15.987 54.859L30.2928 32.2565V42.7156C30.2928 47.7131 32.2709 49.3395 33.9334 49.7942C35.596 50.2489 38.0898 49.9195 40.7908 45.6992L48.6395 33.1428C48.8491 32.7762 49.0917 32.4282 49.3601 32.1011V38.4698C49.3601 43.1448 51.2723 46.9126 54.5667 48.7293C56.0875 49.545 57.8042 49.9399 59.5343 49.8717C61.2646 49.8035 62.9439 49.2747 64.3935 48.3418C68.199 45.908 70.243 41.646 69.9769 36.5139ZM61.2733 43.0914C60.7449 43.4501 60.1286 43.6631 59.4886 43.7083C58.8485 43.7536 58.2078 43.6294 57.6327 43.3489C56.314 42.5717 55.5204 40.82 55.5204 38.4164V31.0547C55.5204 27.5513 54.1358 25.0155 51.7644 24.3705C47.74 23.1733 44.7116 28.0711 43.5884 29.89L36.4885 41.124V27.2915C36.4225 24.1106 35.3652 22.2267 33.3871 21.6397C32.0684 21.2523 30.0903 21.4495 28.1805 24.3078L12.2923 49.3766C10.1786 45.4085 9.07092 40.9952 9.06376 36.5139C9.06376 21.3799 21.3891 9.1042 36.4885 9.1042C51.5878 9.1042 63.9131 21.3799 63.9131 36.5139V36.6462C64.0709 39.5649 63.1196 41.9082 61.2757 43.0728L61.2733 43.0914Z" fill="white"/>
</svg>
